<svg width="100" height="100" viewBox="0 0 100 100" fill="none" xmlns="http://www.w3.org/2000/svg">
<path d="M10.45 30.4C10.2 31.9 10 33.4 10 35C10 33.45 10.2 31.9 10.45 30.4ZM10 65C10 66.6 10.2 68.1 10.45 69.6C10.2 68.1 10 66.55 10 65ZM30.45 89.55C31.9 89.8 33.45 90 35 90C33.45 90 31.95 89.8 30.45 89.55ZM30.45 10.45C31.95 10.2 33.45 10 35 10C33.45 10 31.9 10.2 30.45 10.45ZM69.6 10.45C68.1 10.2 66.6 10 65 10C66.55 10 68.1 10.2 69.6 10.45ZM89.55 30.4C89.8 31.9 90 33.45 90 35C90 33.4 89.8 31.9 89.55 30.4Z" fill="#072567"/>
<path d="M100 31.5C100 33.6 98.35 35.25 96.25 35.25H90V44.4355C90 46.1035 88.19 47.142 86.75 46.3C84.6 45.05 82.1 44.65 79.7 45.3C78.1605 45.6695 76.3 44.6745 76.3 43.0915V38.7C76.3 30.45 69.55 23.7 61.3 23.7H38.7C30.45 23.7 23.7 30.45 23.7 38.7V61.3C23.7 69.55 30.45 76.3 38.7 76.3H40.95C41.53 76.3 42 76.77 42 77.35C42 82.1675 45.491 86.218 50.0875 87.149C50.952 87.324 51.5365 88.358 51.25 89.1915C51.086 89.6685 50.651 90 50.1465 90H35.3V96.25C35.3 98.3 33.6 100 31.55 100C29.45 100 27.8 98.3 27.8 96.25V88.9C19.8 86.45 13.55 80.2 11.15 72.25H3.75C1.7 72.25 0 70.55 0 68.5C0 66.4 1.7 64.75 3.75 64.75H10V53.75H3.75C1.7 53.75 0 52.05 0 50C0 47.9 1.7 46.25 3.75 46.25H10V35.25H3.75C1.7 35.25 0 33.6 0 31.5C0 29.45 1.7 27.75 3.75 27.75H11.15C13.55 19.8 19.8 13.55 27.8 11.1V3.75C27.8 1.7 29.45 0 31.55 0C33.6 0 35.3 1.7 35.3 3.75V10H46.25V3.75C46.25 1.7 47.95 0 50 0C52.05 0 53.75 1.7 53.75 3.75V10H64.75V3.75C64.75 1.7 66.45 0 68.5 0C70.55 0 72.25 1.7 72.25 3.75V11.15C80.2 13.55 86.45 19.8 88.85 27.75H96.25C98.35 27.75 100 29.45 100 31.5Z" fill="#072567"/>
<path d="M94.95 67.6477C91.55 67.6477 89.6 65.9477 89.6 63.4477C89.6 62.4477 89.9 61.2977 90.6 60.0977C92 57.6977 91.15 54.5977 88.75 53.2477L84.2 50.5977C82.1 49.3477 79.4 50.0977 78.15 52.1977L77.85 52.6977C75.45 56.8477 71.55 56.8477 69.15 52.6977L68.85 52.1977C67.65 50.0977 64.9 49.3477 62.85 50.5977L58.25 53.2477C56.65 54.1477 55.7 55.8477 55.7 57.5977C55.7 58.4477 55.95 59.2977 56.4 60.0977C57.1 61.2977 57.45 62.4477 57.45 63.4477C57.45 65.9477 55.45 67.6477 52.05 67.6477C49.3 67.6477 47 69.8977 47 72.6477V77.3477C47 80.0977 49.3 82.3477 52.05 82.3477C55.45 82.3477 57.45 84.0477 57.45 86.5477C57.45 87.5477 57.1 88.6977 56.4 89.8977C55 92.2977 55.85 95.3977 58.25 96.7477L62.85 99.3977C64.9 100.648 67.65 99.8977 68.85 97.7977L69.15 97.2977C71.55 93.1477 75.45 93.1477 77.85 97.2977L78.15 97.7977C79.4 99.8977 82.1 100.648 84.2 99.3977L88.75 96.7477C90.35 95.8477 91.3 94.1477 91.3 92.3977C91.3 91.5477 91.05 90.6977 90.6 89.8977C89.9 88.6977 89.6 87.5477 89.6 86.5477C89.6 84.0477 91.55 82.3477 94.95 82.3477C97.75 82.3477 100 80.0977 100 77.3477V72.6477C100 69.8977 97.75 67.6477 94.95 67.6477ZM73.5 83.5977C68.75 83.5977 64.9 79.7477 64.9 74.9977C64.9 70.2477 68.75 66.3977 73.5 66.3977C78.25 66.3977 82.1 70.2477 82.1 74.9977C82.1 79.7477 78.25 83.5977 73.5 83.5977Z" fill="#072567"/>
<path d="M71.25 40.1V42.9625C71.25 44.633 69.0235 45.692 67.4 45.3C64.9 44.65 62.4 45 60.35 46.25L55.8 48.9C52.65 50.65 50.7 54 50.7 57.6C50.7 57.898 50.7125 58.198 50.7375 58.498C50.9015 60.429 49.5515 62.7725 47.7965 63.5955C45.3835 64.727 43.4895 66.7885 42.5825 69.312C42.1945 70.3925 41.248 71.25 40.1 71.25C33.8 71.25 28.75 66.2 28.75 59.9V40.1C28.75 33.8 33.8 28.75 40.1 28.75H59.9C66.2 28.75 71.25 33.8 71.25 40.1Z" fill="#072567"/>
</svg>
