<svg width="100" height="100" viewBox="0 0 100 100" fill="none" xmlns="http://www.w3.org/2000/svg">
<path d="M85.5996 64.6973L87.1996 67.9473C87.9996 69.5473 90.0496 71.0473 91.7496 71.3473L93.8996 71.6973C100.45 72.7973 101.95 77.5973 97.2996 82.2973L95.2996 84.2973C93.9496 85.6473 93.2496 88.2473 93.6496 90.1473L93.8996 91.3473C95.6996 99.2473 91.4996 102.297 84.6496 98.1473L83.1996 97.2473C81.4496 96.1973 78.5496 96.1973 76.7996 97.2473L75.3496 98.1473C68.4496 102.297 64.2996 99.2473 66.0996 91.3473L66.3496 90.1473C66.7496 88.2973 66.0496 85.6473 64.6996 84.2973L62.6996 82.2973C58.0496 77.5473 59.5496 72.7973 66.0996 71.6973L68.2496 71.3473C69.9996 71.0473 71.9996 69.5473 72.7996 67.9473L74.3996 64.6973C77.4996 58.4473 82.4996 58.4473 85.5996 64.6973Z" fill="#072567"/>
<path d="M70.95 0H29.05C10.85 0 0 10.85 0 29.05V70.95C0 89.15 10.85 100 29.05 100H55.45C57.2 100 58.45 98.2 58.25 96.45C58.05 94.55 58.15 92.3 58.75 89.7C58.85 89.35 58.75 88.95 58.45 88.65L57.35 87.55C53.1 83.25 51.55 78.05 53.05 73.3C54.6 68.6 58.9 65.3 64.85 64.3L66.35 64.05L67.7 61.35C70.45 55.75 74.95 52.5 80 52.5C85.05 52.5 89.55 55.75 92.3 61.35L93.05 62.9C93.4 63.65 94.1 64.15 94.9 64.3C95.35 64.4 95.8 64.5 96.25 64.6C98 65.05 100 63.65 100 61.8V29.05C100 10.85 89.15 0 70.95 0ZM71.3 34.8L59.75 49.7C58.3 51.55 56.25 52.75 53.9 53C51.6 53.3 49.25 52.65 47.45 51.2L38.3 44.1C37.95 43.8 37.55 43.8 37.35 43.85C37.15 43.85 36.8 43.95 36.5 44.35L24.6 59.8C23.85 60.75 22.75 61.25 21.6 61.25C20.8 61.25 20 61 19.3 60.45C17.65 59.2 17.35 56.85 18.6 55.2L30.5 39.75C31.95 37.9 34 36.7 36.35 36.4C38.7 36.1 41 36.75 42.85 38.2L52 45.4C52.35 45.7 52.7 45.65 52.95 45.65C53.15 45.65 53.5 45.55 53.8 45.15L65.35 30.25C66.6 28.6 68.95 28.3 70.6 29.6C72.3 30.85 72.55 33.2 71.3 34.8Z" fill="#072567"/>
</svg>
