<svg width="108" height="86" viewBox="0 0 108 86" fill="none" xmlns="http://www.w3.org/2000/svg">
<path d="M83.75 66.7105C82.95 66.7105 82.2 66.4605 81.5 65.9605C79.85 64.7105 79.5 62.3605 80.75 60.7105C88.6 50.2605 88.6 35.6605 80.75 25.2103C79.5 23.5603 79.85 21.2103 81.5 19.9603C83.15 18.7103 85.5 19.0603 86.75 20.7103C96.55 33.8105 96.55 52.1105 86.75 65.2105C86 66.2105 84.9 66.7105 83.75 66.7105Z" fill="#072567"/>
<path d="M92.9005 79.2105C92.1005 79.2105 91.3505 78.9605 90.6505 78.4605C89.0005 77.2105 88.6505 74.8605 89.9005 73.2105C103.251 55.4105 103.251 30.5103 89.9005 12.7103C88.6505 11.0603 89.0005 8.71035 90.6505 7.46035C92.3005 6.21035 94.6505 6.56035 95.9005 8.21035C111.251 28.6603 111.251 57.2605 95.9005 77.7105C95.2005 78.7105 94.0505 79.2105 92.9005 79.2105Z" fill="#072567"/>
<path d="M63.85 1.8576C58.25 -1.2424 51.1 -0.442397 43.8 4.1076L29.2 13.2576C28.2 13.8576 27.05 14.2076 25.9 14.2076H21.25H18.75C6.65 14.2076 0 20.8576 0 32.9576V52.9575C0 65.0575 6.65 71.7075 18.75 71.7075H21.25H25.9C27.05 71.7075 28.2 72.0575 29.2 72.6575L43.8 81.8075C48.2 84.5575 52.5 85.9075 56.5 85.9075C59.1 85.9075 61.6 85.3075 63.85 84.0575C69.4 80.9575 72.5 74.5075 72.5 65.9075V20.0076C72.5 11.4076 69.4 4.9576 63.85 1.8576Z" fill="#072567"/>
</svg>
