<svg width="100" height="86" viewBox="0 0 100 86" fill="none" xmlns="http://www.w3.org/2000/svg">
<path d="M96.25 28.6C84.7 10.45 67.8 0 50 0C41.1 0 32.45 2.6 24.55 7.45C16.65 12.35 9.55 19.5 3.75 28.6C-1.25 36.4501 -1.25 49.2 3.75 57.05C15.3 75.25 32.2 85.6501 50 85.6501C58.9 85.6501 67.55 83.0501 75.45 78.2001C83.35 73.3001 90.45 66.15 96.25 57.05C101.25 49.25 101.25 36.4501 96.25 28.6ZM50 63.05C38.8 63.05 29.8 54 29.8 42.85C29.8 31.7 38.8 22.65 50 22.65C61.2 22.65 70.2 31.7 70.2 42.85C70.2 54 61.2 63.05 50 63.05Z" fill="#072567"/>
<path d="M49.9995 28.5547C42.1495 28.5547 35.7495 34.9546 35.7495 42.8546C35.7495 50.7046 42.1495 57.1046 49.9995 57.1046C57.8495 57.1046 64.2995 50.7046 64.2995 42.8546C64.2995 35.0046 57.8495 28.5547 49.9995 28.5547Z" fill="#072567"/>
</svg>
